<svg xmlns="http://www.w3.org/2000/svg" width="1148" height="1082" viewBox="0 0 1148 1082" font-family="'IBM Plex Sans JP',system-ui,'Hiragino Kaku Gothic ProN','Yu Gothic','Meiryo',sans-serif"><defs><marker id="arr" viewBox="0 0 10 10" refX="9" refY="5" markerWidth="7" markerHeight="7" orient="auto-start-reverse"><path d="M0,0 L10,5 L0,10 z" fill="#84938E"/></marker></defs><rect width="1148" height="1082" fill="#fff"/><text x="574" y="26" text-anchor="middle" font-size="15" font-weight="700" fill="#14201E">販売プロセス（受注〜売上計上）</text><g transform="translate(0,40)"><rect x="64" y="46" width="1084" height="208" fill="#ECF4F2" opacity="0.42"/><rect x="0" y="46" width="64" height="208" fill="#ECF4F2"/><text text-anchor="middle" font-size="12" fill="#3E8E86" font-weight="600"><tspan x="32" y="146.7">受</tspan><tspan x="32" y="161.7">注</tspan></text><rect x="64" y="254" width="1084" height="208" fill="#EEF2F9" opacity="0.42"/><rect x="0" y="254" width="64" height="208" fill="#EEF2F9"/><text text-anchor="middle" font-size="12" fill="#5E84C0" font-weight="600"><tspan x="32" y="354.7">承</tspan><tspan x="32" y="369.7">認</tspan></text><line x1="0" y1="254" x2="1148" y2="254" stroke="#CFDAD6" stroke-dasharray="5 4"/><rect x="64" y="462" width="1084" height="208" fill="#ECF4EF" opacity="0.42"/><rect x="0" y="462" width="64" height="208" fill="#ECF4EF"/><text text-anchor="middle" font-size="12" fill="#4E9466" font-weight="600"><tspan x="32" y="562.7">出</tspan><tspan x="32" y="577.7">荷</tspan></text><line x1="0" y1="462" x2="1148" y2="462" stroke="#CFDAD6" stroke-dasharray="5 4"/><rect x="64" y="670" width="1084" height="312" fill="#F6F2E9" opacity="0.42"/><rect x="0" y="670" width="64" height="312" fill="#F6F2E9"/><text text-anchor="middle" font-size="12" fill="#9E833F" font-weight="600"><tspan x="32" y="807.7">売</tspan><tspan x="32" y="822.7">上</tspan><tspan x="32" y="837.7">計</tspan><tspan x="32" y="852.7">上</tspan></text><line x1="0" y1="670" x2="1148" y2="670" stroke="#CFDAD6" stroke-dasharray="5 4"/><line x1="298" y1="0" x2="298" y2="996" stroke="#EBF0EE"/><line x1="532" y1="0" x2="532" y2="996" stroke="#EBF0EE"/><line x1="766" y1="0" x2="766" y2="996" stroke="#EBF0EE"/><rect x="64" y="0" width="234" height="46" fill="#F2F6F5"/><text x="181" y="27.5" text-anchor="middle" font-size="12.5" font-weight="700" fill="#3A4742">得意先</text><rect x="298" y="0" width="234" height="46" fill="#F2F6F5"/><text x="415" y="27.5" text-anchor="middle" font-size="12.5" font-weight="700" fill="#3A4742">営業部</text><rect x="532" y="0" width="234" height="46" fill="#F2F6F5"/><text x="649" y="27.5" text-anchor="middle" font-size="12.5" font-weight="700" fill="#3A4742">倉庫</text><rect x="766" y="0" width="234" height="46" fill="#F2F6F5"/><text x="883" y="27.5" text-anchor="middle" font-size="12.5" font-weight="700" fill="#3A4742">経理部</text><rect x="0" y="0" width="64" height="46" fill="#EAEFED"/><text x="32" y="27.5" text-anchor="middle" font-size="11.5" font-weight="700" fill="#56635F">業務</text><line x1="64" y1="0" x2="64" y2="996" stroke="#DCE5E2" stroke-width="1"/><rect x="1000" y="0" width="148" height="46" fill="#EAF0F7"/><text x="1074" y="27.5" text-anchor="middle" font-size="11.5" font-weight="700" fill="#2D5A86">使用システム</text><line x1="1000" y1="0" x2="1000" y2="996" stroke="#C9D8E8" stroke-width="1"/><line x1="0" y1="46" x2="1148" y2="46" stroke="#DCE5E2" stroke-width="1.2"/><rect x="0.5" y="0.5" width="1147" height="995" fill="none" stroke="#EBF0EE"/><path d="M 181 125 L 181 136 Q 181 145 190 145 L 406 145 Q 415 145 415 154 L 415 175" fill="none" stroke="#84938E" stroke-width="1.5" marker-end="url(#arr)"/><path d="M 415 229 L 415 269" fill="none" stroke="#84938E" stroke-width="1.5" marker-end="url(#arr)"/><path d="M 415 343 L 415 354 Q 415 363 424 363 L 640 363 Q 649 363 649 372 L 649 487" fill="none" stroke="#84938E" stroke-width="1.5" marker-end="url(#arr)"/><rect x="514" y="345" width="36" height="17" rx="9" fill="#fff" stroke="#E0E8E5"/><text x="532" y="357.5" text-anchor="middle" font-size="10" font-weight="600" fill="#5A6863">はい</text><path d="M 415 343 L 415 383" fill="none" stroke="#84938E" stroke-width="1.5" marker-end="url(#arr)"/><rect x="401.5" y="354" width="47" height="17" rx="9" fill="#fff" stroke="#E0E8E5"/><text x="425" y="366.5" text-anchor="middle" font-size="10" font-weight="600" fill="#5A6863">いいえ</text><path d="M 415 437 L 415 448 Q 415 457 424 457 L 640 457 Q 649 457 649 466 L 649 487" fill="none" stroke="#84938E" stroke-width="1.5" marker-end="url(#arr)"/><path d="M 649 541 L 649 589" fill="none" stroke="#84938E" stroke-width="1.5" marker-end="url(#arr)"/><path d="M 649 647 L 649 658 Q 649 667 658 667 L 874 667 Q 883 667 883 676 L 883 695" fill="none" stroke="#84938E" stroke-width="1.5" marker-end="url(#arr)"/><path d="M 883 749 L 883 797" fill="none" stroke="#84938E" stroke-width="1.5" marker-end="url(#arr)"/><path d="M 883 855 L 883 866 Q 883 875 874 875 L 190 875 Q 181 875 181 884 L 181 903" fill="none" stroke="#84938E" stroke-width="1.5" marker-end="url(#arr)"/><line x1="495" y1="202" x2="1010" y2="202" stroke="#9FB9D8" stroke-width="1.1" stroke-dasharray="3 3" marker-end="url(#arr)"/><rect x="1013" y="182.5" width="122" height="39" rx="18" fill="#E9F0F8" stroke="#9FB9D8" stroke-width="1.2"/><g fill="none" stroke="#2D5A86" stroke-width="1.1"><ellipse cx="1074" cy="191.5" rx="5.5" ry="2"/><path d="M1068.5 191.5 v5 a5.5 2 0 0 0 11 0 v-5"/></g><text text-anchor="middle" font-size="10.5" fill="#2D5A86" font-weight="600"><tspan x="1074" y="209.64">販売管理システム</tspan></text><line x1="504" y1="306" x2="1010" y2="306" stroke="#9FB9D8" stroke-width="1.1" stroke-dasharray="3 3" marker-end="url(#arr)"/><rect x="1013" y="286.5" width="122" height="39" rx="18" fill="#E9F0F8" stroke="#9FB9D8" stroke-width="1.2"/><g fill="none" stroke="#2D5A86" stroke-width="1.1"><ellipse cx="1074" cy="295.5" rx="5.5" ry="2"/><path d="M1068.5 295.5 v5 a5.5 2 0 0 0 11 0 v-5"/></g><text text-anchor="middle" font-size="10.5" fill="#2D5A86" font-weight="600"><tspan x="1074" y="313.64">販売管理システム</tspan></text><line x1="963" y1="722" x2="1010" y2="722" stroke="#9FB9D8" stroke-width="1.1" stroke-dasharray="3 3" marker-end="url(#arr)"/><rect x="1013" y="702.5" width="122" height="39" rx="18" fill="#E9F0F8" stroke="#9FB9D8" stroke-width="1.2"/><g fill="none" stroke="#2D5A86" stroke-width="1.1"><ellipse cx="1074" cy="711.5" rx="5.5" ry="2"/><path d="M1068.5 711.5 v5 a5.5 2 0 0 0 11 0 v-5"/></g><text text-anchor="middle" font-size="10.5" fill="#2D5A86" font-weight="600"><tspan x="1074" y="729.64">会計システム</tspan></text><line x1="963" y1="826" x2="1010" y2="826" stroke="#9FB9D8" stroke-width="1.1" stroke-dasharray="3 3" marker-end="url(#arr)"/><rect x="1013" y="806.5" width="122" height="39" rx="18" fill="#E9F0F8" stroke="#9FB9D8" stroke-width="1.2"/><g fill="none" stroke="#2D5A86" stroke-width="1.1"><ellipse cx="1074" cy="815.5" rx="5.5" ry="2"/><path d="M1068.5 815.5 v5 a5.5 2 0 0 0 11 0 v-5"/></g><text text-anchor="middle" font-size="10.5" fill="#2D5A86" font-weight="600"><tspan x="1074" y="833.64">販売管理システム</tspan></text><g style="cursor:pointer" onclick="openDetailNo('10')"><title>クリックで工程の詳細を表示</title><rect x="105" y="71" width="152" height="54" rx="27" ry="27" fill="#E6F2EC" stroke="#8FBCA4" stroke-width="1.4"/><text text-anchor="middle" font-size="12" fill="#157F5B" font-weight="600"><tspan x="181" y="102.2">注文</tspan></text></g><g style="cursor:pointer" onclick="openDetailNo('20')"><title>クリックで工程の詳細を表示</title><rect x="339" y="175" width="152" height="54" rx="4" fill="#E9F0F8" stroke="#9FB9D8" stroke-width="1.3"/><text text-anchor="middle" font-size="12" fill="#2D5A86" font-weight="600"><tspan x="415" y="206.2">受注入力</tspan></text></g><g style="cursor:pointer" onclick="openDetailNo('30')"><title>クリックで工程の詳細を表示</title><polygon points="415,269 500,306 415,343 330,306" fill="#FBF1E0" stroke="#D8BA77" stroke-width="1.4"/><text text-anchor="middle" font-size="12" fill="#8A5A12" font-weight="600"><tspan x="415" y="310.2">与信限度内か</tspan></text><rect x="454.8" y="259" width="55.2" height="18" rx="5" fill="#E7F1EE" stroke="#BBD9D0"/><text x="482.40000000000003" y="271.5" text-anchor="middle" font-size="10" font-weight="700" fill="#0B554E">C001 *</text><rect x="320" y="259" width="38.8" height="18" rx="5" fill="#F7ECEA" stroke="#ECCFCA"/><text x="339.4" y="271.5" text-anchor="middle" font-size="10" font-weight="700" fill="#A8473F">R001</text><rect x="375" y="346" width="36" height="15" rx="7" fill="#fff" stroke="#C4D0CC"/><text x="393" y="357" text-anchor="middle" font-size="9.5" font-weight="700" fill="#56635F">IPE</text><rect x="415" y="346" width="36" height="15" rx="7" fill="#fff" stroke="#C4D0CC"/><text x="433" y="357" text-anchor="middle" font-size="9.5" font-weight="700" fill="#56635F">ITAC</text></g><g style="cursor:pointer" onclick="openDetailNo('40')"><title>クリックで工程の詳細を表示</title><polygon points="339,383 491,383 471.24,437 358.76,437" fill="#EFF3F2" stroke="#A8B5AF" stroke-width="1.3"/><text text-anchor="middle" font-size="12" fill="#46534E" font-weight="600"><tspan x="415" y="414.2">与信超過分を承認</tspan></text></g><g style="cursor:pointer" onclick="openDetailNo('50')"><title>クリックで工程の詳細を表示</title><polygon points="573,487 725,487 705.24,541 592.76,541" fill="#EFF3F2" stroke="#A8B5AF" stroke-width="1.3"/><text text-anchor="middle" font-size="12" fill="#46534E" font-weight="600"><tspan x="649" y="518.2">出荷指図に基づき出荷</tspan></text><rect x="679.8" y="477" width="55.2" height="18" rx="5" fill="#E7F1EE" stroke="#BBD9D0"/><text x="707.4" y="489.5" text-anchor="middle" font-size="10" font-weight="700" fill="#0B554E">C002 *</text><rect x="563" y="477" width="38.8" height="18" rx="5" fill="#F7ECEA" stroke="#ECCFCA"/><text x="582.4" y="489.5" text-anchor="middle" font-size="10" font-weight="700" fill="#A8473F">R002</text></g><g style="cursor:pointer" onclick="openDetailNo('60')"><title>クリックで工程の詳細を表示</title><path d="M 573 589 L 725 589 L 725 638.88 C 699.616 651.06, 674.384 651.06, 649 638.88 C 623.616 626.7, 598.384 626.7, 573 638.88 Z" fill="#F5F2EF" stroke="#C6B49E" stroke-width="1.3"/><text text-anchor="middle" font-size="12" fill="#6A5C4F" font-weight="600"><tspan x="649" y="622.2">出荷報告書／納品書控</tspan></text></g><g style="cursor:pointer" onclick="openDetailNo('70')"><title>クリックで工程の詳細を表示</title><rect x="807" y="695" width="152" height="54" rx="4" fill="#E9F0F8" stroke="#9FB9D8" stroke-width="1.3"/><text text-anchor="middle" font-size="12" fill="#2D5A86" font-weight="600"><tspan x="883" y="726.2">売上計上（三者照合）</tspan></text><rect x="913.8" y="685" width="55.2" height="18" rx="5" fill="#E7F1EE" stroke="#BBD9D0"/><text x="941.4" y="697.5" text-anchor="middle" font-size="10" font-weight="700" fill="#0B554E">C003 *</text><rect x="797" y="685" width="38.8" height="18" rx="5" fill="#F7ECEA" stroke="#ECCFCA"/><text x="816.4" y="697.5" text-anchor="middle" font-size="10" font-weight="700" fill="#A8473F">R003</text></g><g style="cursor:pointer" onclick="openDetailNo('80')"><title>クリックで工程の詳細を表示</title><path d="M 807 797 L 959 797 L 959 846.88 C 933.616 859.06, 908.384 859.06, 883 846.88 C 857.616 834.7, 832.384 834.7, 807 846.88 Z" fill="#F5F2EF" stroke="#C6B49E" stroke-width="1.3"/><text text-anchor="middle" font-size="12" fill="#6A5C4F" font-weight="600"><tspan x="883" y="830.2">請求書</tspan></text></g><g style="cursor:pointer" onclick="openDetailNo('90')"><title>クリックで工程の詳細を表示</title><rect x="105" y="903" width="152" height="54" rx="27" ry="27" fill="#E6F2EC" stroke="#8FBCA4" stroke-width="1.4"/><text text-anchor="middle" font-size="12" fill="#157F5B" font-weight="600"><tspan x="181" y="934.2">商品・請求書受領</tspan></text></g></g><g transform="translate(0,1036)"><line x1="0" y1="0" x2="1148" y2="0" stroke="#EBF0EE"/><rect x="14" y="17" width="26" height="16" rx="8" fill="#E6F2EC" stroke="#8FBCA4"/><text x="45" y="28" font-size="10.5" fill="#5A6863">端子(開始/終了)</text><rect x="102" y="17" width="24" height="16" rx="2.5" fill="#E9F0F8" stroke="#9FB9D8"/><text x="131" y="28" font-size="10.5" fill="#5A6863">処理</text><polygon points="166,17 190,17 186.9,33 169.1,33" fill="#EFF3F2" stroke="#A8B5AF"/><text x="195" y="28" font-size="10.5" fill="#5A6863">手作業</text><polygon points="250,16 262,25 250,34 238,25" fill="#FBF1E0" stroke="#D8BA77"/><text x="267" y="28" font-size="10.5" fill="#5A6863">判断</text><path d="M 300 17 L 324 17 L 324 31.62 C 319.992 35.19, 316.008 35.19, 312 31.62 C 307.992 28.05, 304.008 28.05, 300 31.62 Z" fill="#F5F2EF" stroke="#C6B49E"/><text x="329" y="28" font-size="10.5" fill="#5A6863">書類</text><rect x="362" y="17" width="20" height="16" rx="5" fill="#F7ECEA" stroke="#ECCFCA"/><text x="372" y="28.5" text-anchor="middle" font-size="9.5" font-weight="700" fill="#A8473F">R</text><text x="387" y="28" font-size="10.5" fill="#5A6863">リスク</text><rect x="432" y="17" width="20" height="16" rx="5" fill="#E7F1EE" stroke="#BBD9D0"/><text x="442" y="28.5" text-anchor="middle" font-size="9.5" font-weight="700" fill="#0B554E">C</text><text x="457" y="28" font-size="10.5" fill="#5A6863">統制</text><rect x="492" y="17" width="24" height="16" rx="6" fill="#E9F0F8" stroke="#9FB9D8"/><line x1="484" y1="25" x2="491" y2="25" stroke="#9FB9D8" stroke-dasharray="3 3"/><text x="521" y="28" font-size="10.5" fill="#5A6863">使用システム</text></g></svg>